Coordinates
version=1
nRows=14
nColumns=24
inDegrees=yes

Units are S.I. units (second, meters, Newtons, ...)
Angles are in degrees.

endheader
time	pelvis_tilt	pelvis_list	pelvis_rotation	pelvis_tx	pelvis_ty	pelvis_tz	hip_flexion_r	hip_adduction_r	hip_rotation_r	knee_angle_r	ankle_angle_r	subtalar_angle_r	mtp_angle_r	hip_flexion_l	hip_adduction_l	hip_rotation_l	knee_angle_l	ankle_angle_l	subtalar_angle_l	mtp_angle_l	lumbar_extension	lumbar_bending	lumbar_rotation
      0.57100000	     -0.33198396	      3.67792681	      2.74032469	     -0.84636278	      0.99698262	      0.26969858	     21.61911679	     -3.30934302	     -4.23388827	      1.70595212	      2.87607127	    -12.02275170	      8.06128882	    -17.88789979	      4.51343056	      8.43128942	     -5.08056844	      9.22002559	    -12.75641082	      4.68724687	     -3.80074851	     -4.85622404	     -5.02236387
      0.57516667	     -0.35992243	      3.58989625	      2.79221394	     -0.84020792	      0.99636942	      0.27022625	     21.67218149	     -3.21173744	     -4.06462377	      1.34186456	      2.86689981	    -12.29357538	      8.05118590	    -17.93700006	      4.37301686	      8.39721684	     -5.65596141	      9.31113088	    -12.56610397	      4.74711561	     -3.71916908	     -4.72477725	     -5.12870793
      0.57933333	     -0.36932250	      3.47817983	      2.84121574	     -0.83400997	      0.99581737	      0.27076209	     21.70517347	     -3.08586788	     -3.90458378	      0.91430451	      2.86856212	    -12.54242267	      8.05215699	    -17.99293910	      4.20975544	      8.36448467	     -6.25563376	      9.40786489	    -12.40244918	      4.80448624	     -3.64924901	     -4.54521672	     -5.19302232
      0.58350000	     -0.39693071	      3.35867910	      2.88676979	     -0.82776808	      0.99527171	      0.27132831	     21.75282324	     -2.94540346	     -3.73042156	      0.44782467	      2.75289240	    -12.87210798	      8.06137871	    -17.98842072	      4.03912557	      8.25114166	     -6.94028666	      9.49203084	    -12.12635249	      4.89337420	     -3.55854328	     -4.37339370	     -5.28451980
      0.58766667	     -0.39576146	      3.22782402	      2.92371584	     -0.82147160	      0.99478780	      0.27190261	     21.76117629	     -2.78666009	     -3.56200437	     -0.04590557	      2.57639651	    -13.21632341	      8.08319379	    -17.99372163	      3.85577329	      8.07432299	     -7.66680661	      9.57082785	    -11.78588974	      5.01899469	     -3.48134545	     -4.17966416	     -5.35898413
      0.59183333	     -0.41016600	      3.09670553	      2.95736587	     -0.81515855	      0.99432497	      0.27250689	     21.79282081	     -2.62251420	     -3.40400950	     -0.59326595	      2.36122207	    -13.54109565	      8.11430859	    -17.95957088	      3.67587524	      7.91675468	     -8.43037681	      9.59129041	    -11.49540744	      5.16421706	     -3.40347965	     -3.99819008	     -5.41769235
      0.59600000	     -0.40712251	      2.95362581	      2.99221787	     -0.80879640	      0.99392112	      0.27312324	     21.79310020	     -2.44139052	     -3.26120837	     -1.15066061	      2.08505028	    -13.88853813	      8.15752510	    -17.92100075	      3.47990529	      7.72255992	     -9.23921336	      9.60056330	    -11.15492256	      5.34852731	     -3.32792724	     -3.79199616	     -5.48302131
      0.60016667	     -0.39437234	      2.81974884	      3.01295492	     -0.80242438	      0.99355086	      0.27378607	     21.78450196	     -2.26032665	     -3.10700574	     -1.73403544	      1.76514189	    -14.24629504	      8.22480820	    -17.84976607	      3.29408182	      7.46472452	    -10.13050711	      9.57024487	    -10.74584475	      5.61344544	     -3.26671908	     -3.61140000	     -5.53238804
      0.60433333	     -0.36369319	      2.66930396	      3.03102838	     -0.79600282	      0.99323432	      0.27445782	     21.75091202	     -2.05801457	     -2.97943563	     -2.33378573	      1.41807909	    -14.59579567	      8.31554699	    -17.78164697	      3.08813678	      7.17997729	    -11.05419218	      9.52607044	    -10.32640630	      5.96803161	     -3.22421350	     -3.40700758	     -5.57743414
      0.60850000	     -0.36344345	      2.51396908	      3.04932996	     -0.78954139	      0.99291769	      0.27513858	     21.74831049	     -1.85024816	     -2.87486856	     -2.95163427	      1.03939689	    -14.91788710	      8.41150976	    -17.65300644	      2.87943118	      6.89479978	    -12.02728027	      9.43209475	     -9.95062258	      6.35018800	     -3.13103931	     -3.19077027	     -5.61492970
      0.61266667	     -0.32151778	      2.35192799	      3.03876455	     -0.78307210	      0.99266967	      0.27588245	     21.71606305	     -1.62081700	     -2.77742562	     -3.61044845	      0.63957013	    -15.25283314	      8.54015105	    -17.54385801	      2.66054907	      6.52888088	    -13.04173157	      9.33289037	     -9.47109121	      6.88421062	     -3.09355824	     -2.96217575	     -5.64290843
      0.61683333	     -0.27301860	      2.17734918	      3.03445257	     -0.77655712	      0.99247491	      0.27662124	     21.65571771	     -1.38219429	     -2.72923941	     -4.23903942	      0.21081001	    -15.49059444	     10.06476374	    -17.41492364	      2.42421697	      6.16348166	    -14.09319905	      9.03070079	     -9.19080387	     13.58255513	     -3.05087186	     -2.71777835	     -5.62699612
      0.62100000	     -0.26234308	      2.01542205	      3.04024616	     -0.77005290	      0.99226741	      0.27737219	     21.63640695	     -1.15939927	     -2.67811743	     -4.88338400	     -0.21509052	    -15.73836394	     10.05147047	    -17.19953171	      2.19891906	      5.80215167	    -15.23957840	      8.78548809	     -8.79031274	     13.64754489	     -2.96631559	     -2.50093049	     -5.67212670
      0.62516667	     -0.21373139	      1.84910108	      3.01387552	     -0.76355639	      0.99212911	      0.27819201	     21.59779584	     -0.91900026	     -2.63651176	     -5.57514439	     -0.62969132	    -15.97578874	     10.04600073	    -16.99645178	      1.96283232	      5.35562966	    -16.42783754	      8.53251477	     -8.28418229	     13.79560065	     -2.93472104	     -2.27268254	     -5.66813196
